<?xml version="1.0" standalone="no"?>
<!DOCTYPE svg PUBLIC "-//W3C//DTD SVG 20010904//EN"
 "http://www.w3.org/TR/2001/REC-SVG-20010904/DTD/svg10.dtd">
<svg version="1.0" xmlns="http://www.w3.org/2000/svg"
 width="260.000000pt" height="260.000000pt" viewBox="0 0 260.000000 260.000000"
 preserveAspectRatio="xMidYMid meet">
<metadata>
Created by potrace 1.14, written by Peter Selinger 2001-2017
</metadata>
<g transform="translate(0.000000,260.000000) scale(0.100000,-0.100000)"
fill="#000000" stroke="none">
<path d="M1405 2365 c-364 -99 -926 -445 -1028 -634 -41 -75 -57 -136 -64
-247 -7 -125 -1 -154 32 -154 13 0 74 20 134 45 61 25 170 61 242 80 135 36
159 47 159 71 0 21 -60 27 -165 14 -165 -20 -155 -2 100 190 252 189 391 270
495 286 30 5 41 3 45 -9 4 -9 -42 -93 -113 -208 -216 -351 -338 -597 -417
-839 -43 -133 -56 -253 -35 -341 40 -172 183 -320 285 -295 134 34 718 850
960 1341 149 303 184 475 96 475 -38 0 -55 -16 -140 -128 -104 -137 -134 -205
-136 -300 l-1 -77 -121 -202 c-236 -392 -387 -598 -553 -757 l-92 -87 -25 23
c-85 79 -70 192 66 488 114 248 288 560 491 882 105 165 108 181 58 279 -39
74 -91 119 -144 125 -23 2 -76 -6 -129 -21z"/>
</g>
</svg>
